/* XPM */
static char *output_onlinepngtools__1_1694613051[] = {
/* columns rows colors chars-per-pixel */
"60 60 33 1 ",
"  c #005700",
". c #005C00",
"X c #005D00",
"o c #006200",
"O c DarkGreen",
"+ c #006900",
"@ c #006C00",
"# c #007300",
"$ c #007500",
"% c #007A00",
"& c #007E00",
"* c #008300",
"= c #008400",
"- c #008A00",
"; c #008C00",
": c #009000",
"> c #009400",
", c #009800",
"< c #009F00",
"1 c #00A200",
"2 c #00A700",
"3 c #00A800",
"4 c #00AF00",
"5 c #00B000",
"6 c #00B500",
"7 c #00B800",
"8 c #00BD00",
"9 c #00C100",
"0 c #00C600",
"q c #00C900",
"w c #00CE00",
"e c #00D100",
"r c #00D600",
/* pixels */
">>2=2>%>==$*;93<3*;11**&==#>%,=:=,74,5=:=e=&@>&1>$$::>>%;#@%",
"*,,:0,$O==-+-<-#<;;&-@<1:<+-::&1<*,<=&##>%=,;:->*:$-1*<:;1;*",
"-;:=*6%;;<<4>&:1$=<:$=*>3,;<$-2;*&,>2;&*:,=:,,,<1::%O.;<=>31",
"<>,<$>-&>,:-%;73>;;;<:2@;<1,,@%-=,5=%:4=,=:=->:4>>6=-$:=,%*&",
"5,*-*,6><;9<-=<&*:,*->%&2:&;<#>=&,2;<5;:-,:--*;>;>;,#5>:2:>$",
":4$:*&*,#%*-%4:<%;=*2=,>;,>=:,&#*,,1=>>&=-1:>=>>:535,1:14$%2",
"47; 11*><:%1=12*>:%:;,:#1>->,-;*,;,-#->;%*;;3:*<4*,:6&3%34.@",
">%::.2&:<%75;>>2<:%<,,:-><,&&>=-&1=-*&$;:>=;&<;@:2-#;<=&*31,",
";21<$>>4:1&2;;>-:,=-:3;$*;*@;2;3&>,12<>;3;:=<><>;,31-*2=&:3=",
"#&=*<;=27=#-=%6;->=,$;=#2<,&>=-=-%>#>*-=<::1::>,*=1;>3#;&3%*",
"16;1;>%--;>*%4<;:-:,,::>;3>--;%:3*%;::8>,>;%-<-<,>--$*<=1-&:",
"o=%;;$%**>:=2;+,:;$&,1:$;-,,>;:>1+<4;*,<2;=-4;;-:*:%=>*$%2;>",
"-$>;&3>$:2*4*-=7>:,:-<1=#;$-6$%$2:$=;=:;*@>;;=;->2>>2;%;=<#,",
"*,;*2=&-,;;=-$<=>51,1<-##<-><,%&=5%;:1,-2:<=%4,&>*21,,:41;,&",
"<-2*=*;,2<-2:=;:#;*=*:,1:-:>$:;:;,O:&:,O**::::*1-=$-:<3<=:><",
"#><&*=#=>:2--;4>:&<<*%>**&,-&:@3>,<>1;-;>:%>=<=,,,;<3:;&1$:-",
":+%=;,*-5,=*%-&>&><=::>;-=>>;>;*O&*;>2*,;--=;>,>-1,*:-*3*=;&",
";&*;#&>-&%>>,-=*;%;&7=;;*4*=>>&:@%,=$<;5=:--,;1-,*-%:w,=#<=&",
"%<;2-:**,;=;*:*:;+#**@2&;+%=>&@-%,&2#,<#<:2>:>->,-1;<,$&->-#",
"5,&>>&-&,==<+--,<&&:-&&%&q*>>-%<-;1=@4-;%:*:<%&#-<:$=#;=-=;O",
":7<;4,&->;<<>>:@>@&,=&:-<;&=,&$;3,2--<$**--=*-%>,*::,-><:111",
"q11,::=%&<2*-===1=,8::2=&:11:%1->,;:;:4=-1:,;-5-;>,1==-,:<,<",
"#;:*6-;>::><==:1:=*>1<:<:;;+@=<&;:,,&2:=@16>*-==>,>$:+<=,>=;",
":,-*2;=1>=-&1,,@=;;*-$;=1:4&>19;-<2@-2$**%,,5,;>;;=<:=&-=:12",
";*,>=-$,<4:,:&:*;,;-2;4,,;***::,@1*-;14%w1<><-*#--&>,#<-4*&4",
"%>;$:2=>$-<:44=%$<=:,2;;4%;:1,1=3*:=<-$,,:*=6,;=%2-$1-1:;$>&",
":,:,,2:*-:5#;@=<*=:&:>>%&5O%<>;=2;=:=<$3**><;;+3*:*&*:;=>;:#",
"1#;<**o2*=-$-&-$#&>=-:;61--*;--3$5@,,:,*31&%-#;-&<*%:->-<;;:",
">1,,#1@2-=%1=*:*>;=*<;,-%6;--,*3:;1-,>:,>=5:3<3:><;,1>;--,&-",
"1>*<391*#5;-2>$@;>&-#*:<2%-,3-,4*5;&&$4:7:&>>:-*41<1*&:4&#<:",
":*:->4;3=:;6:>o=;,3$;2=<:+%%$&:;3;<:$&-$-*-32>4%%2>;**>-;-=1",
"%5>&;,=#@@-%2<:=11&,*>1-;3*,=;->>:0,$o=:-#*2<.4<=$>%:3,;@,2;",
"4=*-,>6=&&=<&,<;1<<,<&o >,1=6<;1=;$<*=-1,>>=,>#*12%:=,<3,,%*",
".;;23*&-1,<:,<*22;:18#%#4<3=-=2>12@1-%14%>;>q4==:&-*<%:>2>:#",
"2;>>1<-1&*&6;<;*-<;21<$1;&2;4-5>,#*,6>><r4#><=*>1=;,*%-;--:-",
">@&;:,;;1=:>;-:*<;=533:1<61%$<&8*>%-o,%**4=1;:+;=%<;,3,1-;-4",
"%&>:==;<:$&,----&34*>>5&3*81@$3<&o462>=-&2-,>%,;#-,,;$>-$<:-",
"=:=2;-:%%>;;1;%,:O>>;#*-;$:2:*<*2<+,%->=4<*<<<;2*>,,-;<;:%%%",
"=3=3><><;=3--=,>1>*>3>>%<:-,3*=<>4*==2:>;2-=-->;;*;2>+<>&#&:",
">#:=>-;=-*<;;<-:>,%&1:=<::;4=$*=-&-:;,8-->->7-=3;,$;%@:,<%;%",
"*;4-%-,:7->,==<*%1:;&;**4;<;=:75:%<,2%=%3=@2>;,<->12;2:2<&::",
"=1,&;4,;<:3=*,3;=>::<-**%=;,:5=;*:*&=;%2><<;%>:;%;<,;%<%=:=-",
"=$;;%:;-1===<>=&:-:7<>>>$,&<@-&&<-&<-$*>=:<>*3*<>,<,<>=:%>,&",
"%--3=;-32-,2>;:2<%-=:>=,,;;*3=<,**,-%&,%;*;$3*-1>1::%*=>=>;,",
"=<:>*>:-:#;*>&;>;:-;%;=>5<-::>2=>--,=>,1=>-&,:%&::>,:<>;:2%;",
"+51:2<;<>:,:-=;,=<,>-31,-$,+*-*<2##:@>,*3%$-5:,-1>-%,<:&>,*;",
"=%$--:,4%:>>*%-:;=--:&<-$2$;,%1$-%<,=<3<-=:%&>$:<;&,:<*%->=1",
"==**--%:;3*;*->*2->;%*;5>-$,:-:=#<O*21-;,;,-*;;&=&7$;=%6*;4=",
"+1&:#1O2<#;:2->:-2-:>,3,=@&=;&,<&4:,-=3,%=*<=,&##*-#1=:%&@#$",
"$>>>6<&5,-%=$<<%=->2==;&::*=>%<1;>,$;-,-->%;-;:*-*:-&O*7*2,>",
"%:2:>=>7*$-;-;;>=::=<:,=;>,43>-21>2;;><;,;::-@<&-;;;;;3:=$>#",
">-;1>2;:3-:1,>>->=;2,>=-=2>::25<4;,*:*=>;#-=*>,>;4::3>*,<:=#",
">%;2-2;1;-O23*-:-&26;$;$:%3>*3@-;-6-=>,;,<#*;,>==>>>;,=:,$&%",
"4*3>3$>3%1+==46>=-&=><,**=&<11>>--4*=<>;=&1,,%:&=;:$>*2*4-;2",
",3#:;@&46=3:21>=#$=:*:,;<;6=*,-*<:;-<143>:#*>::32<,-;:<<::>:",
",,2;;>=-*:41%#7-::$,==1$:=*%:<->:=,6>>#,:=>1#-&4;--4;<3-*#1,",
"<=,:=-*2$,>*#&%=*:*:%-%<&*;-;<:,,;:-;%*<5*-@::;-=&-,%%,3%13>",
",5%3&>&;,:<<*=%O,:$-*#=*1*>=:-5%><*=&2%=:%:;&&$*;:-:;q,=4*;-",
"*3;>2-,>-=;*:*4,5>>;>,,>;->4;=,,;=$,&3;=*:*%>-;-2;;=2*&2;=;;",
"<4:7<%&O,;5-**:>=%6,,1>$-;%%><3:=:<8>%#9:<3;&&=4:=+%:=;=,34>"
};
