/* XPM */
static char *output_onlinepngtools__2_1694613924[] = {
/* columns rows colors chars-per-pixel */
"60 60 256 2 ",
"   c #020302",
".  c #0A0502",
"X  c #040A04",
"o  c #0C0B03",
"O  c #04040A",
"+  c #030D0A",
"@  c #0B0C0B",
"#  c #140A03",
"$  c #05130B",
"%  c #0C1708",
"&  c #0A140D",
"*  c #141204",
"=  c #1B1504",
"-  c #161B06",
";  c #14140A",
":  c #1A160A",
">  c #1C1C0C",
",  c #0F0D16",
"<  c #0C1412",
"1  c #081414",
"2  c #0D1A12",
"3  c #141414",
"4  c #141D14",
"5  c #1C1B13",
"6  c #191816",
"7  c #14141C",
"8  c #1C1B1C",
"9  c #261907",
"0  c #231D0C",
"q  c #261D15",
"w  c #221E1B",
"e  c #321911",
"r  c #1A2408",
"t  c #1D230C",
"y  c #1D2314",
"u  c #1A2717",
"i  c #1C231C",
"p  c #27270A",
"a  c #342907",
"s  c #2D330B",
"d  c #363907",
"f  c #3C3B01",
"g  c #232314",
"h  c #2A2515",
"j  c #282B14",
"k  c #23231C",
"l  c #2A241B",
"z  c #242B1D",
"x  c #2A2B1C",
"c  c #352A18",
"v  c #293519",
"b  c #373817",
"n  c #33331D",
"m  c #161721",
"M  c #1D1B22",
"N  c #251E22",
"B  c #291E22",
"V  c #1D2321",
"C  c #192627",
"Z  c #10292B",
"A  c #242323",
"S  c #2B2524",
"D  c #252B23",
"F  c #2A2C23",
"G  c #25262A",
"H  c #2B2A2A",
"J  c #332C22",
"K  c #352B27",
"L  c #293723",
"P  c #2D3224",
"I  c #2D322A",
"U  c #313526",
"Y  c #393726",
"T  c #33362A",
"R  c #35392B",
"E  c #3A3C2E",
"W  c #2E2F34",
"Q  c #343832",
"!  c #3B3E31",
"~  c #432A1A",
"^  c #463719",
"/  c #453927",
"(  c #52392B",
")  c #463C37",
"_  c #3C4406",
"`  c #36431A",
"'  c #2D4124",
"]  c #344324",
"[  c #3B4628",
"{  c #3E4233",
"}  c #3D4736",
"|  c #474B07",
" . c #4F5004",
".. c #565807",
"X. c #474719",
"o. c #554A18",
"O. c #4A571C",
"+. c #575817",
"@. c #655E14",
"#. c #5F6508",
"$. c #5C6518",
"%. c #67660C",
"&. c #676818",
"*. c #726D13",
"=. c #6D7219",
"-. c #757719",
";. c #484727",
":. c #574829",
">. c #465328",
",. c #58572A",
"<. c #424434",
"1. c #474938",
"2. c #584938",
"3. c #4B5637",
"4. c #565637",
"5. c #665728",
"6. c #6B4E33",
"7. c #655738",
"8. c #576529",
"9. c #576837",
"0. c #596E36",
"q. c #6B6928",
"w. c #6C742B",
"e. c #767827",
"r. c #666538",
"t. c #796934",
"y. c #677737",
"u. c #767837",
"i. c #33384B",
"p. c #414243",
"a. c #474644",
"s. c #564A42",
"d. c #595747",
"f. c #545348",
"g. c #665846",
"h. c #6B564E",
"j. c #735C47",
"k. c #656749",
"l. c #61654C",
"z. c #776848",
"x. c #6A7947",
"c. c #797548",
"v. c #686B52",
"b. c #776557",
"n. c #787654",
"m. c #797369",
"M. c #827F15",
"N. c #837B36",
"B. c #866648",
"V. c #877948",
"C. c #947A4E",
"Z. c #846A59",
"A. c #88785A",
"S. c #977759",
"D. c #A17F5D",
"F. c #87776E",
"G. c #887768",
"H. c #957B68",
"J. c #A27D6B",
"K. c #7D8317",
"L. c #7E8424",
"P. c #788739",
"I. c #7B894B",
"U. c #888929",
"Y. c #93922C",
"T. c #9D9B2A",
"R. c #848635",
"E. c #979837",
"W. c #ADAB37",
"Q. c #928D4D",
"!. c #8B8357",
"~. c #B09155",
"^. c #9DA15C",
"/. c #ADAC4F",
"(. c #A5A656",
"). c #8A8867",
"_. c #968867",
"`. c #958F73",
"'. c #99887A",
"]. c #A68769",
"[. c #AA936F",
"{. c #B4976D",
"}. c #A78D77",
"|. c #AB9579",
" X c #B89778",
".X c #A7A369",
"XX c #B5A66A",
"oX c #ABA675",
"OX c #B8A578",
"+X c #B6B27C",
"@X c #CC9755",
"#X c #CDA65A",
"$X c #E2B35B",
"%X c #C79B73",
"&X c #D0AB6E",
"*X c #D9B66B",
"=X c #C6A979",
"-X c #D7B577",
";X c #E6BA69",
":X c #F3BA6B",
">X c #E7BB76",
",X c #D9C95B",
"<X c #D2C874",
"1X c #ECC871",
"2X c #EAC478",
"3X c #F6C877",
"4X c #F3C57B",
"5X c #FBCB7C",
"6X c #FCD17D",
"7X c #9A8C87",
"8X c #A89686",
"9X c #A3928B",
"0X c #B69985",
"qX c #B9A786",
"wX c #B2AF8A",
"eX c #BAA595",
"rX c #AAA4A2",
"tX c #C29C84",
"yX c #C8A688",
"uX c #D6AB8A",
"iX c #C8B384",
"pX c #D7B689",
"aX c #C8AA98",
"sX c #D4AC93",
"dX c #C8B59A",
"fX c #D4B292",
"gX c #D9B69A",
"hX c #E3B989",
"jX c #E4BB98",
"kX c #CBB6A6",
"lX c #CCB5AD",
"zX c #D5B8A6",
"xX c #E2BEA4",
"cX c #DBC394",
"vX c #E9C688",
"bX c #FCCD83",
"nX c #F7CD88",
"mX c #FED185",
"MX c #F7D089",
"NX c #FCD28A",
"BX c #EECD95",
"VX c #FBD693",
"CX c #FAE89A",
"ZX c #CFCAAB",
"AX c #DBC6A7",
"SX c #DCC7BB",
"DX c #E5C7AA",
"FX c #F6D5A5",
"GX c #E7C9B5",
"HX c #F0D0B2",
"JX c #FAD8B9",
"KX c #F9E8B2",
"LX c #F5DAC9",
"PX c #FBE7CC",
"IX c #F8EBD2",
"UX c #FFF1E3",
/* pixels */
"{ R R R { <.<.3.a.3.d.w.` ;.j G.  H E 1.E T I D i 8 2 & + , O < 1 1 $ 2 $ $ $   X $ O $ $ 1 1 1 1 O Q X g = : * = 9 qX8X",
"R R R R Q Q <.1.3.3.d.P.j ;.j f.  D E { ! T I D V 8 2 1 1 @ O O 1 $ + $ $ + + + X $ X $ $ $ $ I.4 m.!   5 6 = ; e %XJXLX",
"R T R R T R ! 1.<.3.f.w.j x.j d.  3 E { { R T I D k y 4 < $ X 2 $ $ $ 1 $ $ $ $ $ $ $ $ $ % { : F o > @ ; k % 0 6.%XJXLX",
"E T R T R R R ) 3.} 3.8.j s j l.  @ <.{ <.! R T I D i 4 < 2 X $ 2 $ O O $ $ $ + $ $ $ $ $ X } > y ; r & l 0 Y 6.yX-X].PX",
"E I R R P R R R 1.<.f.o.p ` j g.  $ 1.{ <.<.R T P F D u 7 < + & 2 $ O O $ $ $ $ $ 1 $ % $ z L ; 5 > - : 4.n.:.JXuX@X~ UX",
"E R R R U R T T ;.<.f.X.g - r k.o   <.<.1.1.! R U P D i i < $ 2 2 $ O O $ $ $ $ & $ 2 u u `.z : 0 9 = <.g.4._.JXuX%X~ IX",
"! { R E U U T T E <.a.+.= t r d.b X f.<.1.1.{ { R L D k V 4 2 2 2 $ O @ < 1 $ $ $ $ L u & h u 9 ( ~ ^ ;.Z.^ t.{.hX@X}.PX",
"E ! E T R U R Y E E { :.0 h U { ` X 1.<.<.1.1.R ] R P i i 4 u 2 & 2   , , & $ % 2 $ ' ] j % 4 z.$XjXD.>.A.:.AXA.jX~.z.xX",
"E { R I T U T T R E E z.c h P * ;.X <.1.1.<.{ d.{ I P F i i u 2 2 2   m 7 & $ 2 2 u v [ E : 0 B.:XFXB.a _.B.FX).S.BX_.}.",
"! ! { R U P R R R Y U A.h j z - v + ;.1.1.{ <.<.[ R R P z i u u 2 2   < 7 $ $ u 2 u ' ] b q 0 Q.@XFXC.( OXpXFXKXX.pXqXZ.",
"R E E I P P R { Y E ] A.0 n v - r   1.{ ! ! E 1.} R I L D V i 2 4 2   7 m 7 2 $ r z ' L [ j 0 7.3XFXuX6.=XHXPX X;.5._.( ",
"R R { R U F U R R Y [ _.Y g j * *   1.{ ) ! ! { { E R I D P i C 8 ; l m m M + $ ' u v s ] ] * ^ @XFX%XG.9 / / c PXn.[.K ",
"I R E R R x P U R R n oXj > r = 2   1.1.{ E ! ! { R I T I H V z u y Y m m < $ 2 v v v ' v [ r a ~.JXj.e e 0 Y 0 :.).oXw ",
"U R R R ! P P R U U [ ,.t 0 = > ;   1.{ { E { R ! E I H R D D D u g h # m 2 X % ' u ' ' v 3.  4.uX2.eXq }.~ dXeX# ;.OXo ",
"P R U R R U I U U R ;.>.* g > > o   E E ! <.! ! E ! I H I D D D D u ;.B m M $ 2 ' ` ' v ` ` n.# # , 9X: dX) sXkX'.|.wX. ",
"L P T R T P P U U R 3.` - n r 0 &   ! { { } E E E E Q D Q I I D Q g ( 3 m < $ u ] ` ' v ` >.^ p aXe F./ BXZ.%XkXH.yXoX  ",
"I P P R T T U U Q T `.` : Y 0 : * . ) <.{ <.! E ! E R x P P H D ' n / : M , 1 i ] [ ` ] 9.4.wX= aXZ.s.sXzXJ.%XaXH.aXC.  ",
"x x P R R U U U T ! .X>.* 1.5 : > 5   ! { ! E ! E E R H P x D F v 3.7.q w 3 + L [ ' ] [ 0.9._.'.8XZ.e  XDXsX%XzXb.aXV.  ",
"z z x U U R T P H Y c.4.* l.g ; ; h Y ) R { ! <.E E T T F l D F D A.7.q N 3 1 v ' 3.` O.3.0.z.).].b.. sXzXxX%X}.:.aXt.O ",
"P g z I U U R U U `.V.s * m.: * * 0 Q T I T 1.} Y ! ! E R x D D D A.g.e B 8 & ] ' 0.0.>.,.9.,.b.}.b..  X%XDXtXH.:.zX5.  ",
"T i z P I T R T U X.oXg # 8X% * * g * k U { { } { ! E R P x D D D z.( x N V 4 ] ' 9.9.9.3.0.X.g.}.h.S yXyXgXuX~ 6.].5.  ",
"I i i L U x <.T 4.c ZX> ; '.- o * g n @ Y Q } } <.{ ! R U P i V D n.2.c A D i >.>.>.P.0.0.0.b g.'.H.) eXaXsX{.e :.yXo.  ",
"Q D V L I E T f.b.p `.g - ).o . # 0 x # U j P ! { { E R R R i D z g.2.K A H V 3.P.O.P.0.0.9.v g.9X9Xb., aXjXyX( b.gX,.  ",
"I i i D x R I k.3.h b y : ;.# . * : n   I.P.I.b ;.{ { E { P D i L 7.g.E H H V ] P.O.P.0.0.x.j g.'.0Xm.lXh.fXtX2.K _.;.  ",
"Q i i z ] s k.v.3.b p > o / o . * 5 n F s _ y.Q.>.E E { ! R D i D 4.7.K H G M } I.0.x.x.X wXj h.G.aX7XeXaXsX8X) # dXp . ",
"Q i D u x.n.^.r.;.!.X.0 t qX= o : 0 > k L b ,.+.q.[ Q { { P D i D n.4./ G G G j v % r x.O wXh h.b.aXF.H.aXsXaX) 9XB.;.  ",
"R C L R w.+.^.c.^.KXf r 1.KXY o ; k h x P X.w.$.&.P.] Q L I D z D !.r.Y H H S j 3.$ 8.`   .X9 b.g.aXH.Z.zXyX8X/ 9X:.n   ",
"T C R b U.(.E.-.<XR.R.a o.KX,.@ * s s F y 8.w.u.q.Q.>.R D v z z v G.7.d.W S H t 8.- I.0.t oX* b.c kXJ.qXSXyXaXK H.5.b   ",
"L L 3.y.$.| -.U. ...^ X.e.Q.r.o p d ^ j t s O.b 9.>.x.n L v z i z g.4./ H G D F I.O.P.P.3.cX  b.# lXJ.{.lXsXlX) 9Xt.<.  ",
"L L Q.L. .f /._ ..N.U.*...%.q.w.f p _ X.* p b b v u s R z D z z D d.7.U W H G H I.0.P.Q.0..Xg j.h.aXJ.%XLXsXzX) }.!.;.  ",
"L [ _ U.Y.XX#.%.%. .-.@.@.*.t.+.=.9 X._ = j b h u t t ] F D D L u 1.r.J H H C D I.P.P.I.q.c.s.G.aXlX0XsXLXxXLX) eXC.;.  ",
"b w.U...-.f -.e.Y.f =.f d *.w. .-.O.p d ` s p g u 4 y b D G D D u U d.l H H D C [ 8.0.I.w.,.7XJ.zXlXgXxXxXxXLX) 0X!./   ",
"(.L.#.e.=.E...E.-.L.8.f d y.u.+...w.X p _ O.p p v 7 y u k A D D z z b k A H H k t y.[ 0.8.;.8X_.lXaXxXJXaXGXzXa.Z.=Xn O ",
"K...+.+.#.-.P.&.$.Y.- p s 9 q.+.p _ b . s O.` p y u y r i V H L L 4 v u A G F k z 3.[ >.d p SXa xXaXxXPXaXzXSXf.tX=Xn O ",
"_ e.U.K._ %.O. .Y._ X - r r =X=X* r 4.  0 p s - 4 y 2 t D 8 D z z y v y w A x I x 9.3.' ,.9 eXb.xXaXGXIXDXaXaXh.sXpXE   ",
"%.e.L.U.s $._ ,X_ % % @ o n +XcX  @ ;.  g 5 Y 2 = 6 6 4 F M A A u u v z z i z L D 3.} L I.Y eXj.sX XHXUXKXyXAXh.yX Xh   ",
".. .+.=.^ | | =.* * o 5 * g r.cX*   X O   X j @ ; 3 3 6 y M M A z i L i U x z z D ] [ H `.h _.6.tXB.JXUXJX0X}.s.gX{.l   ",
"U.e. .| ..P.(.X.6 h x ) k k p XX=     X   O g * ; @ 3 8 i M V 8 D D L L n x l u D v v x ZXg 6.( {.Z.JXLXJXJ.S.s.sXiX:   ",
"#...-.E.K.K.O.- K 1.) q ! H k |.;.@ @ @ @ 3 : 5 6 , 7 6 6 w V 6 8 A I D j F z z L L r L dXq H.B.S.}.GXPXAXS.j.s.uX[.=   ",
"| &.$.@.| Y.- r / )   F.p.a.k :.n.; & ; 4 y 0 g 3 , 7 6 6 8 N 8 V C V D x D z u z I v n AXZ.B.B.A.aXGXPXsXS.( g.yX_.*   ",
"&.-. .U.f =.# c F.) d.].j.b.M 8 Q.M < o 6 g 0 b # 7 7 7 7 2 8 N B G S H T H G A l D l P wXA.pX6.].0XFXIXyXB.~ f.h.XX#   ",
"..%...Y.f ^ 0 ( F.s.8X XG.F.Q l XXM     D w q ;.4.7 7 6 7 7 6 8 G A S S W W I A D k k q _.9 sXS.[.8XjXLXyXD.2.s.7XXXJ   ",
"..Y.-.*...,.h g.7Xb.H.}.7X9X/ S +Xw   @ F k h = ;.@ 3 3 < 7 3 N S l F l H Q K S N w S w :.# uX%X0X0XuXlXpXD.g.h.) =X*   ",
"=.E.N.| ..p s.h.7X2.B.}.F.lXs.d.!.S # : S k h.0 * @ 3 8 8 M 8 M k 0 g q S S S N N A S q z.~ sXxX0XaXjXLX=XJ.6.b.|.wX*   ",
"U.M. .R...g.F.lXm.:._.SX9XSXG.F.z.5 . 8 T q Y l o X 3 w 6 w w w p t k l B N K K B B B B 7.s.gXsXzXzXhXlXxX{.g.b.C.oX    ",
"W.U.#.-.M..Xm.lXF.H.}.LXh.lXH.9Xz.c l W K c n g h.% 3 8 6 w 6 e t 4 y S w q S S S B N B c.b.fX].zXjXyXGXjX{.H.Z.cX;.    ",
",XW.M.Y.*.Q.7XeXF.aXH.aXm.kXH.kXt.# <.H x c 2.q Y 5 M 8 6 6 8 g r u j 8 w B B N w B w w A.b.fX XaXsX].lXgX XH.}.BX;.o   ",
"CXBX*XW.+.q.).H.'.7Xj.0Xb.kXA.GXV.= 9 J n ~ ;.c = 6 G M M M w F j r y i 7 M N w w S q q c.b.aX0X9X%X].aXxX XG.0XcX;.X   ",
"KXKXN./.@.&.u.d.F.).h.'.Z.8Xb.gXN.9 b c c / ^ a p 5 G i.W W H k r ' y u C C m Z ; 6 z u z.Z.0XsXS uXJ.aXgXfXG.zXFXv.  X ",
"E.I.N.@.a &.Y.n.8Xb.6.}.'.kXC.%Xa 9 ^ b K ( / a h ! V i.a.p.a.a.Y r y C Z Z C Z C Z ' l.!.dXaXxX# jX0X0XgXsX}.gXpXg.X d.",
"=.Q.-.@.+X+.(.k.^.4.7.S.`.oX(.N.t.q / 2.4.s 7./ c d.: a.a.a.a.1.{ } R C Z i M W g j 0.r.!.ZXeXHX# sXtX}.zXfXaXDXXXb o u.",
"=.R.&.u.iXd .Xn.).b ) 1.b.V..XN.oX; a 6.c.z.4.n j } * <.p.a.a.a.1.a.4.a.1.2.4.1.V.(.8.^ !.'.  HX# gXyX9 DXsXeXGXKXa Q.T.",
"(.XX&XXXw.&.cXoX).7XlX9XeX[.~.5.q.= :.5.v.r.o.^ c g.n 1.g.j.g.2.7.7.6.j.V.%X2X2XW.W.q.+.!.. O uXK gXGXs.DXGXzXLXcXQ.Y.*.",
"-X<X2XvX6X*XvXFXcXFXZXKXFXFX&XBX+.9 o.6.5.&XNXbX>X-X-X=X-XVXnXnXBXVXNXnX>X3X4X,XW.Y.&.| c.; O sX( DXDX) eXGXkXlXcXX.E.T.",
"4XbXmXmX6X6XNXNXVXVXVXNX5X6X/.~.~.~.*X>X:X5XbXbX4XbXbXNX3X3XbXVXNXbX5X5XbXbX5X,XW.Y.w.+.c.- 8 5 # q ; D z rXlX8X=X&.E.T.",
"bXbXmXmX6X6XMXNXNXNXmXMX1X3X5XMXnXnXNXmX3X3X3X5X5X5XbXbX5X3X:XbXbX5XbX#X$X;X3XE.W.U.%.w.Q.c S c k g c S q K 8X8XiXX.O.E.",
"mXmXbXbXbXNXNXNXNXbX5XbX6X3XmXbX5XbXbX5X$X1X3X6X3X5X5X5X5X>X1XbX5X:XhX:X;X*X2X&.K.L.&.e.Q.o.~.OX~.~.Q.V.t.6./ ^ [.b ;.P.",
"mXmXmX4XNXNXbXbXbX3X3X5XbX5X5XbXbXbX3X5X5X3X3X3X3X5X5X5XMXvX3XnXvXvXhXBXcX*X.Xe. ._ R.&.&X-X>X1X$X;X;X*X*X&X{.Q.OX9 ;.q.",
"NXmXbXbXmXNXbX4X:X3X3X5X5X2XnXnXMXNX5X6X4XbX1X3X5X5XbXbX2X2X-X&XqXOX{.pXOXu. .#.&.e.U.N.;XnX5X>X>XbX4X>X>X>X*X&X~.7.:.5.",
"iXOXOX X|. XyXcXvXuXnXnXVXNXvXMXVXvX2X4X,X1X2XMX2X-X%X=XiX{.[.{.OX[.qXOX(.O.O.%.&.q.*.@X;X;X*X>X>X2X*X;X*X>X*X#X@X#X].t."
};
