/* XPM */
static char *result[] = {
/* columns rows colors chars-per-pixel */
"60 60 242 2 ",
"   c #16120F",
".  c #161C15",
"X  c #1A1B16",
"o  c #1C1D19",
"O  c #151917",
"+  c #0E0C0B",
"@  c #2B1A15",
"#  c #2C1C1A",
"$  c #241917",
"%  c #341D1B",
"&  c #391E16",
"*  c #291F0E",
"=  c #1C2316",
"-  c #1D241B",
";  c #1E2A1C",
":  c #182514",
">  c #1E331C",
",  c #1F3C1B",
"<  c #1E3C17",
"1  c #17290D",
"2  c #2A240E",
"3  c #362B0C",
"4  c #3D350C",
"5  c #232213",
"6  c #2B2415",
"7  c #242A17",
"8  c #22261C",
"9  c #2D231B",
"0  c #222C1D",
"q  c #292B1D",
"w  c #2B2F16",
"e  c #35231C",
"r  c #36291A",
"t  c #23331D",
"y  c #2B351B",
"u  c #223B1C",
"i  c #283918",
"p  c #36301E",
"a  c #3A3618",
"s  c #1E2A22",
"d  c #1D2724",
"f  c #1E3920",
"g  c #222620",
"h  c #232B21",
"j  c #2B2C23",
"k  c #2C2926",
"l  c #3B2422",
"z  c #342D22",
"x  c #392925",
"c  c #243421",
"v  c #2A3424",
"b  c #233A21",
"n  c #2A3B24",
"m  c #2A3429",
"M  c #3C3322",
"N  c #32332B",
"B  c #373827",
"V  c #3B3A34",
"C  c #552A1B",
"Z  c #44381B",
"A  c #593A1E",
"S  c #4C3116",
"D  c #65321B",
"F  c #482926",
"G  c #572B27",
"H  c #433D22",
"J  c #4A3B23",
"K  c #433C2B",
"L  c #4A332C",
"P  c #5B3124",
"I  c #573629",
"U  c #463339",
"Y  c #673727",
"T  c #763C2B",
"R  c #703E34",
"E  c #1E481A",
"W  c #23431C",
"Q  c #254A1C",
"!  c #2B4C1C",
"~  c #27441B",
"^  c #354317",
"/  c #25541E",
"(  c #31430C",
")  c #1C4923",
"_  c #1D5523",
"`  c #1F5B26",
"'  c #1C5A28",
"]  c #1A5D31",
"[  c #254321",
"{  c #2A4322",
"}  c #244C22",
"|  c #2C4A23",
" . c #2C4B28",
".. c #364927",
"X. c #235424",
"o. c #2C5424",
"O. c #225A25",
"+. c #235D29",
"@. c #2C5729",
"#. c #365828",
"$. c #3C4638",
"%. c #345333",
"&. c #3F5B35",
"*. c #1E642A",
"=. c #1C6C31",
"-. c #23622B",
";. c #296628",
":. c #34642B",
">. c #36682A",
",. c #39762D",
"<. c #346C32",
"1. c #49451E",
"2. c #4F4818",
"3. c #554A1E",
"4. c #5A531E",
"5. c #6A5418",
"6. c #786E16",
"7. c #444223",
"8. c #4A4522",
"9. c #4C4923",
"0. c #464828",
"q. c #514D23",
"w. c #564628",
"e. c #5A5727",
"r. c #4B4836",
"t. c #594A35",
"y. c #4A5834",
"u. c #59563A",
"i. c #465225",
"p. c #7A462B",
"a. c #635D2C",
"s. c #675A28",
"d. c #765B2A",
"f. c #674938",
"g. c #655C33",
"h. c #675835",
"j. c #724B34",
"k. c #486529",
"l. c #4A7D3C",
"z. c #447836",
"x. c #4E7234",
"c. c #69632A",
"v. c #736928",
"b. c #6C6333",
"n. c #6F6D34",
"m. c #766738",
"M. c #737733",
"N. c #595D4C",
"B. c #675E59",
"V. c #4F7E41",
"C. c #536D4B",
"Z. c #6C6745",
"A. c #864432",
"S. c #98523C",
"D. c #85573D",
"F. c #A1583C",
"G. c #AB493E",
"H. c #8B6F29",
"J. c #897A2C",
"K. c #8A6736",
"L. c #887539",
"P. c #987D38",
"I. c #9C782E",
"U. c #8C6C19",
"Y. c #8B5844",
"T. c #8F5544",
"R. c #A85B42",
"E. c #877A47",
"W. c #986147",
"Q. c #A4664F",
"!. c #927365",
"~. c #B47460",
"^. c #C07560",
"/. c #3A8229",
"(. c #4A853C",
"). c #4A8A2F",
"_. c #538947",
"`. c #58934B",
"'. c #6A8955",
"]. c #5EA655",
"[. c #57A64B",
"{. c #6CA95B",
"}. c #79B66B",
"|. c #73B066",
" X c #729669",
".X c #7DC26F",
"XX c #99892C",
"oX c #8F813A",
"OX c #9B8B35",
"+X c #A98738",
"@X c #AA973A",
"#X c #B69134",
"$X c #B6A338",
"%X c #C69C3D",
"&X c #C3AF3B",
"*X c #94854A",
"=X c #A69343",
"-X c #B49648",
";X c #AD8D49",
":X c #BAA744",
">X c #BEB85E",
",X c #9A9167",
"<X c #B1917B",
"1X c #85BB70",
"2X c #C29E4B",
"3X c #CB9854",
"4X c #C3A84A",
"5X c #C9B647",
"6X c #D3B84C",
"7X c #C7A857",
"8X c #CDB552",
"9X c #D2BB54",
"0X c #D7B354",
"qX c #CEB562",
"wX c #E0A26B",
"eX c #83C073",
"rX c #D7C44E",
"tX c #D5C154",
"yX c #DAC554",
"uX c #DBC35D",
"iX c #DDCA5B",
"pX c #DDCA53",
"aX c #E4CA5A",
"sX c #EBCC56",
"dX c #DDC562",
"fX c #D8C674",
"gX c #DDD07D",
"hX c #E7CA66",
"jX c #F4CD62",
"kX c #E2D269",
"lX c #F6D466",
"zX c #F7D57A",
"xX c #FCE370",
"cX c #B08F88",
"vX c #8F8E82",
"bX c #C0AF99",
"nX c #EDCE91",
"mX c #FFE390",
"MX c #DEDAB9",
"NX c #EEEBDD",
"BX c #F1E2E0",
"VX c None",
/* pixels */
"VXVXVXVXVXVXVXVXVXVXVXVXVXVXVXVXVXVXVXVXVXVXVXVXVXVXVXVXVXVXVXhXv.;XNXI VXVXVXVXVXVXVXVXVXVXVXVXVXVXVXVXVXVXVXVXVXVXVXVX",
"VXVXVXVXVXVXVXVXVXVXVXVXVXVXVXVXVXVXVXVXVXVXVXVXVXVXVX<XR.wXnX3XF.D.S.Q.3.Q.~.T.D.VXVXVXVXVXVXVXVXVXVXVXVXVXVXVXVXVXVXVX",
"VXVXVXVXVXVXVXVXVXVXVXVXVXVXVXVXVXVXVXVXVXVXVXVX^.R.S.T T D G G Y T S.A.Q.R T Y T Y T T R.!.VXVXVXVXVXVXVXVXVXVXVXVXVXVX",
"VXVXVXVXVXVXVXVXVXVXVXVXVXVXVXVXVXVXVXVXVXVXG.T R F r F G & G T T A.A.D.A.Y & I S % G C P Y F.D.VXVXVXVXVXVXVXVXVXVXVXVX",
"VXVXVXVXVXVXVXVXVXVXVXVXVXVXVXVXVXVXVXVXVXF.C F % @ *XlXjXlX0XlXsX-XD P G D P o $ @ l # F P L A.Q.VXVXVXVXVXVXVXVXVXVXVX",
"VXVXVXVXVXVXVXVXVXVXVXVXVXVXVXVXVXVXVX#XK.p.C L uXhXkXuXwXhXhXdX9X8X$XK.Y G Y G % $ @ $ 9 r I P Y p.VXVXVXVXVXVXVXVXVXVX",
"VXVXVXVXVXVXVXVXVXVXVXVXVXVXVXVXVXVXVXVXcXS e R H h.*X6.@X:XJ.d.4.e.c.3.% J e F % # x % % % e I G L W.VXVXVXVXVXVXVXVXVX",
"VXVXVXVXVXVXVXVXVXVXVXVXVXVXVXVXVXVXVXVXVXW.D zXhX7X3XzXaXXXn.J bXB + B.J J t.9 e & e q z k z I f.P j.VXVXVXVXVXVXVXVXVX",
"VXVXVXVXVXVXVXVXVXVXVXVXVXVXVXVXVXVXVXVXVXVXcX9XqX;XU.n.m.*X*X4.mXzXqX4X*Xh.b.t.Z @ e & l $ # % F F f.VXVXVXVXVXVXVXVXVX",
"VXVXVXVXVXVXVXVXVXVXVXVXVXVXVXVXVXVXVXVXVXVXVX=X$XxXxXjXzXaXXXv.c.c.b.h.h.h.c.b.b.8.@ % % # @ % % L !.VXVXVXVXVXVXVXVXVX",
"VXVXVXVXVXVXVXVXVXVXVXVXVXVXVXVXVXVXVXVXVXVXVXVXtX9XoXj.f.R s.n.v.OXL.e.s.b.b.c.v.q.6 @ l @ % l t.cXVXVXVXVXVXVXVXVXVXVX",
"VXVXVXVXVXVXVXVXVXVXVXVXVXVXVXVXVXVXVXVXVXVXVXVXVX,X8X:X-XP.M.v.s.c.c.c.c.a.a.a.e.s.r BXVXVXVXVXVXVXVXVXVXVXVXVXVXVXVXVX",
"VXVXVXVXVXVXVXVXVXVXVXVXVXVXVXVXVXVXVXVXVXVXVXVXVXVXfX5X1.7.1.9.8.8.q.q.3.3.9.1.1.1.e.U VXVXVXVXVXVXVXVXVXVXVXVXVXVXVXVX",
"VXVXVXVXVXVXVXVXVXVXVXVXVXVXVXVXVXVXVXVXVXMXmXgXkXyXtX6X8X8X$X3 * 3 p a a a 4 3 3 2 # r.VXVXVXVXVXVXVXVXVXVXVXVXVXVXVXVX",
"VXVXVXVXVXVXVXVXVXVXVXVXVXVX).5.! $X%XXXuXdXhXfX9X5X5X5X9XtXrX6X5X5X5X&X5X&X4X+X%XU.c.( @.y.^ 3 VXVXVXVXVXVXVXVXVXVXVXVX",
"VXVXVXVXVXVXVXVXVXVXVXVXz.*.O.m.M.#X5.pXiXiXtXuX9XtXyXpXrXyXtXrXrX5X+X#X-X! y.w.:.-.O./ } W u t 8 h VXVXVXVXVXVXVXVXVXVX",
"VXVXVXVXVXVXVXVXVXVX).X.' E [ k.@XU.pXpXyXtX5X$X9XiXpXpXiXiX9X8X-X+XhXuXZ.Z.| ,.>.+.X.} W u f s d 8 7 VXVXVXVXVXVXVXVXVX",
"VXVXVXVXVXVXVXVXz.'.sXkXjXlXlX-.*.-.>.;.k.>X$X:XtXpXaXkX4X7X0X7X7X9X7X7Xs.h. .o./ Q ~ u > ; 8 g 8 g c VXVXVXVXVXVXVXVXVX",
"VXVXVXVXVXVX).x.lXkXdX8XaXhXlX=.+.;.-.-.+.;.+.;.o.#.qXsX4X*XS Z b.m.y b | ! W W u t ; 7 8 s 0 0 t 0 v VXVXVXVXVXVXVXVXVX",
"VXVXVXVX(.;.( OXaX6X@XoXH.P.@X! o.O.+.-.+.-.=.*.-.O.O._ ! X.@. .| } | } u c ; ; 8 ; g ; 0 c t 0 7 8 VXVXVXVXVXVXVXVXVXVX",
"VXVX/./._.,.O.` ` ` -.-.-.*.] _ ~ | Q X.@.O.` -.-.' X._ X.Q } [ [ , ; - ; - - ; ; 0 0 c 0 q 8 8 N y VXVXVXVXVXVXVXVXVXVX",
"VX,.;.-.' O._ _ ` X._ ) ) [ Q [ W t > [ | Q / O.-.+._ _ } { > > ; - ; - - g 7 8 8 v 0 7 q j - 8 B VXVXVXVXVXVXVXVXVXVXVX",
";.' _ Q W u u > > f > ; > t ; t ; 0 ; ; : t | #./ ) W u 0 ; d - 8 - - - - g ; - $ q B 8 j B 8 q VXVXVXVXVXVXVXVXVXVXVXVX",
"#.[ t 0 - ; - - 8 8 8 7 8 8 1 - ; ; - c j j H * 7 n ; ; ; ; 8 - - - - 8 8 ; : - h j - - v * t NXVXVXVXVXVXVXVXVXVXVXVXVX",
"VXVXVXVXVXVXVXVXVXVXVXVXVXVXVXVXM t ; 6 - . - - X j g - 9 8 - o 8 9 j . = 8 8 j - 6 q = 8 B 8 MXVXVXVXVXVXVXVXVXVXVXVXVX",
"VXVXVXVXVXVXVXVXVXVXVXVXVXVXVXVXy.0.w 7 - - - : d o X 7 5 - o o X o $ - - 8 - - : j 8 ; v N = 8 vXVXVXVXVXVXVXVXVXVXVXVX",
"VXVXVXVXVXVXVXVXVXVXVXVXVXVXVXVXVXv a - w 6 S 4 2 4.) E Z.^ u.1 = - $ o - 8 6 8 s d * r 0.w.Z J Z r.VXVXVXVXVXVXVXVXVXVX",
"VXVXVXVXVXVXVXVXVXVXVXVXVXVXVXVXcXy H 7 ..a m.o.+.) #._ #.1.a i E y.5 : = - - M J r.r.z 5 o X = $ 8 f C.VXVXVXVXVXVXVXVX",
"VXVXVXVXVXVXVXVXVXVXVXVXVXVXVXVX'.t.J M O.x.X.@./ N.i.X.^ i.u 0.f i m.d.d.w.J K O o . X X X O X 5 X ; u &.VXVXVXVXVXVXVX",
"VXVXVXVXVXVXVXVXVXVXVXVXVXVXVXVX[.X.s.-XM.~ q...1.i E r.y d.H.5.K.d.g.3 ; 0 h ; - O X X X X o X X o : t  .n g VXVXVXVXVX",
"VXVXVXVXVXVXVXVXVXVXVXVXVXVXVX:..X>.Q u ;X+X4XI.I.+X+X2X+XL.^ y c s 0 0 > h c c c ; - . X X X X X o o $  .%.X 8 VXVXVXVX",
"VXVXVXVXVXVXVXVXVXVXVXVXVXVX#.{ |.< u t u b ) 4 4 q b f u t b h h 0 ; 0 c t t t ; 7 - - 8 X X X X o o o 8 %.o X VXVXVXVX",
"VXVXVXVXVXVXVXVXVXVXVXVXVXC.} [ (.u t i W #.} W u b [ , u u c 0 q ; 0 0 t t t 0 t 7 ; - ; d 8 ; X o X X o %.- O X VXVXVX",
"VXVXVXVXVXVXVXVXVXVXVXVXVXQ u } X.i i t  .z.o.< u u b , u t > ; - 7 ; c y t t t b ; d - - 8 h 8 - - X X : B X O X VXVXVX",
"VXVXVXVXVXVXVXVXVXVXVXVX Xu u Q Q t u i i l.>.[ u u , u b t c s 8 8 t t c t t c 7 > - - X - - - 8 - - 8 d : X X X VXVXVX",
"VXVXVXVXVXVXVXVXVXVXVXVXo., u #.W c c c t :.l.| b ) u u > b 0 ; ; ; ; t t c t y t s - g X X X - X - ; 0 0 ; X X X VXVXVX",
"VXVXVXVXVXVXVXVXVXVXVXVX, i b (.b c t t t Q `.>.u u ) u t t ; ; - - t t t t c t b ; ; t . O X X X X - g s h c . X $.VXVX",
"VXVXVXVXVXVXVXVXVXVXVXVXt t b }.u f t 0 0 W `.,.~ W u u t t w - - d 8 t t c t t t 7 ; 7 : . X X O X X o 0 h 0 . X $.VXVX",
"VXVXVXVXVXVXVXVXVXVXVX_.u v #.`.f b t t 0 u )._. .n u u u t 7 = - d 0 t t v t t t 8 ; ; ; o X X X X . X ; d ; . X c VXVX",
"VXVXVXVXVXVXVXVXVXVXVXE t u z.@.b c 7 t t t >.].o.u u b t t ; - X - ; > n v t t t > 0 - v X X X X X X X - 7 ; m o c VXVX",
"VXVXVXVXVXVXVXVXVXVXVXb c u `.>.t t t > h > >.|.#.W , f t t w - - - t t [ i v 0 t 0 g ; m g o X X X X X o 8 7 8 : : VXVX",
"VXVXVXVXVXVXVXVXVXVXVXt u u ].! u f t w t t @.}.:.u > , > 0 - - X - ; ; { u t t t 0 0 -  .8 O X X X X X o - ; 8 . : VXVX",
"VXVXVXVXVXVXVXVXVXVXVXc > i ].W i t t t 0 0 Q }.:.u , > u t g - - 8 s b | ~ c t ; 0 8 - n f $ X X X X X X - - - m . VXVX",
"VXVXVXVXVXVXVXVXVXVXx.c , u `.E > t t 0 t > ~ eX<.b u u t h 7 - d 8 w t n o.t c t > ; ; m v - X X X X X X o - ; ; - VXVX",
"VXVXVXVXVXVXVXVXVXVX| t t i _.E u t t t 0 c i 1X,., , t t s 8 - - - 0 t { ! > t t ; 7 = m [ - X X X X X X o - 8 - X VXVX",
"VXVXVXVXVXVXVXVXVXVX| t c u {.b u h h t c 0 u }.l.< , b t c 0 7 - 8 ; c ~ ! b t t c 0 - g %.- X X X   X X X = - - h VXVX",
"VXVXVXVXVXVXVXVXVXVX~ < t u |.u t c c ; 0 c c |.(.u t c t 0 7 ; - ; ; t { [ t t t 0 t ; d %.o X X X X X X X . - ; v VXVX",
"VXVXVXVXVXVXVXVXVXVXQ u c > {.b , > h c c ; 0 `.l.< u u t h 0 8 d 7 ; t n { t t t t 0 8 - %.$ X X X O O O X X - d : VXVX",
"VXVXVXVXVXVXVXVXVXVXQ u t i `.n t t ; c h c c _.(.< t t t h 7 - 8 8 0 t u { t t t 7 c ; d $.o o X X X X X X X o d = N.VX",
"VXVXVXVXVXVXVXVXVXVXQ u t u _.t t t c t > ; 7 _._., i c t > 8 8 g - 0 t t { v c t t 0 ; - n o o X X X X X X X O - 8 ; VX",
"VXVXVXVXVXVXVXVXVXVX) t , u z.n t t c c 0 c h l.`., u t 0 c 8 ; - ; 0 y b u n t t h t ; ; 0 o - X X X X . X X X - d ; VX",
"VXVXVXVXVXVXVXVXVXVXu y u t >.u u h ; ; 0 0 h V.`.W b t t ; g - - g 0 t t c c t t c c t q : o X X X X X . X X X - ; g ; ",
"VXVXVXVXVXVXVXVXVXVXVXVXVXNX/ > t v c c ; h t V.`.< , c t ; 8 g 8 8 0 t t t t v t t t t 7 ; N . . X X X O o X X d 8 g - ",
"VXVXVXVXVXVXVXVXVXVXVXVXVXVXVXVXVXVXVXVXVXM M M '.u u f 0 0 g h 8 c q t t t t t t t 7 ; t 0.VXVXVXVXVXVXVXVXVXVXVXVXVXVX",
"VXVXVXVXVXVXVXVXVXVXVXVXVXVXVXVXVXVXVXVX,X2 p p H H H p z VXVXVXVXVXVXVXVXVX<Xg.M p Z 1.9.9.0.VXVXVXVXVXVXVXVXVXVXVXVXVX",
"VXVXVXVXVXVXVXVXVXVXVXVXVXVXVXVXVXVXVX5X5XJ.w.p M a 8.K   O VXVXVXVXVXVXVXVXVXr.M q p p 7.1.g.VXVXVXVXVXVXVXVXVXVXVXVXVX",
"VXVXVXVXVXVXVXVXVXVXVXVXVXVXVXq.L.=X:X:X@XXXXXXXv.2.M   X X $ VXVXVXVXVXVXVXm u.Z.h.B z z a 0.w.K VXVXVXVXVXVXVXVXVXVXVX",
"VXVXVXVXVXVXVXVXVXVXVXq j N.r k k k # 4.n.h.r # . X O O O X VXVXVXVXVXVXVXVX8 $ g.t.m.N k q w.* o   VXVXVXVXVXVXVXVXVXVX",
"VXVXVXVXVXVXVXVXVXB v j k h 8 - o X . . o o V VXVXVXVXVXVXVXVXVXVXVXVXVXVXVXVXX N N V z k h g - o o o o VXVXVXVXVXVXVXVX",
"VXVXVXVXVXVXVXVXVXVXVXVXVXVXVXVXVXVXVXVXVXVXVXVXVXVXVXVXVXVXVXVXVXVXVXVXVXVXVXVXVXVXk k q V N k $ O o o VXVXVXVXVXVXVXVX"
};
