/* XPM */
static char *output_onlinepngtools1694612838[] = {
/* columns rows colors chars-per-pixel */
"60 60 233 2 ",
"   c None",
".  c #000204",
"X  c #04090C",
"o  c #07080B",
"O  c #110C0B",
"+  c #0C0F12",
"@  c #141213",
"#  c #1B1413",
"$  c #1B1917",
"%  c #131010",
"&  c #231B1B",
"*  c #261B18",
"=  c #2A2719",
"-  c #362917",
";  c #3A341A",
":  c #372A26",
">  c #443D1A",
",  c #473919",
"<  c #5B3B15",
"1  c #4E2B13",
"2  c #683B16",
"3  c #6E3219",
"4  c #4A2A24",
"5  c #542D25",
"6  c #5B3333",
"7  c #773C27",
"8  c #6A3A3A",
"9  c #7B3E36",
"0  c #494419",
"q  c #544C1D",
"w  c #5B4B1C",
"e  c #5B501F",
"r  c #67481C",
"t  c #724A18",
"y  c #76541F",
"u  c #5C5321",
"i  c #555122",
"p  c #584020",
"a  c #664726",
"s  c #625522",
"d  c #655B24",
"f  c #6D5B24",
"g  c #6B5A2A",
"h  c #735A25",
"j  c #775927",
"k  c #745039",
"l  c #6D6327",
"z  c #6B6529",
"x  c #736529",
"c  c #756C2B",
"v  c #7B6D2B",
"b  c #786427",
"n  c #7C732D",
"m  c #7B7A2D",
"M  c #77742F",
"N  c #7F7B31",
"B  c #7C7636",
"V  c #7A6548",
"C  c #82471F",
"Z  c #8B5C25",
"A  c #87463B",
"S  c #8B5328",
"D  c #826D2A",
"F  c #80612F",
"G  c #82762D",
"H  c #8D732C",
"J  c #847B2E",
"K  c #8A7C2E",
"L  c #94732B",
"P  c #9B762C",
"I  c #886D36",
"U  c #916E38",
"Y  c #847C31",
"T  c #8A7D30",
"R  c #887333",
"E  c #917F30",
"W  c #A47536",
"Q  c #A97831",
"!  c #8A4C4A",
"~  c #884945",
"^  c #924D49",
"/  c #93534F",
"(  c #8F7244",
")  c #84725B",
"_  c #A5625A",
"`  c #927D64",
"'  c #AA6C63",
"]  c #7B8229",
"[  c #8C822F",
"{  c #84872D",
"}  c #96862E",
"|  c #858333",
" . c #8C8432",
".. c #8B8B34",
"X. c #858A35",
"o. c #918532",
"O. c #948C33",
"+. c #9B8A32",
"@. c #8D9336",
"#. c #939336",
"$. c #9A9434",
"%. c #969B36",
"&. c #9B9A35",
"*. c #969A38",
"=. c #889327",
"-. c #AB812E",
";. c #B5962F",
":. c #A38D32",
">. c #A19533",
",. c #A29B35",
"<. c #AA9C33",
"1. c #A69533",
"2. c #B69B32",
"3. c #AB952E",
"4. c #9AA53A",
"5. c #A4A336",
"6. c #ACA334",
"7. c #ACAB36",
"8. c #A4A338",
"9. c #ABAE39",
"0. c #A5A837",
"q. c #B4A333",
"w. c #BAA333",
"e. c #B4AC35",
"r. c #BAAC34",
"t. c #AEB435",
"y. c #ADB338",
"u. c #A8B738",
"i. c #B4B335",
"p. c #BBB434",
"a. c #BDBB34",
"s. c #B5BA37",
"d. c #B5AF2D",
"f. c #C9A82E",
"g. c #CABB2D",
"h. c #C4BB2F",
"j. c #C4AA38",
"k. c #C2B433",
"l. c #C4BD32",
"z. c #C9BC32",
"x. c #C6B639",
"c. c #D2BD3B",
"v. c #C68534",
"b. c #BCC235",
"n. c #BBC22B",
"m. c #D3D717",
"M. c #D1C51A",
"N. c #E2D81E",
"B. c #CBC52D",
"V. c #C6CB2F",
"C. c #CBCB2C",
"Z. c #C5C32F",
"A. c #D2CB2B",
"S. c #D6C92A",
"D. c #CDD22B",
"F. c #D6D225",
"G. c #DAD425",
"H. c #DDD924",
"J. c #D3D32C",
"K. c #D9D829",
"L. c #C3C632",
"P. c #CBCB34",
"I. c #C9C636",
"U. c #D6CC33",
"Y. c #D4C635",
"T. c #DBD534",
"R. c #E2D622",
"E. c #E5DD24",
"W. c #E4DA2B",
"Q. c #E9D92A",
"!. c #E6DB39",
"~. c #F2DD37",
"^. c #E9D327",
"/. c #D9E028",
"(. c #E8E229",
"). c #EEE33D",
"_. c #EBE434",
"`. c #F0E13C",
"'. c #949C45",
"]. c #9A8459",
"[. c #989452",
"{. c #BD8B48",
"}. c #B28A55",
"|. c #BEAD55",
" X c #938A69",
".X c #AB9466",
"XX c #B28F77",
"oX c #B8A277",
"OX c #ADAC6F",
"+X c #98A653",
"@X c #C69748",
"#X c #C99A57",
"$X c #C28F50",
"%X c #C8B843",
"&X c #CDA85D",
"*X c #D6A55C",
"=X c #C9BB57",
"-X c #D0BF52",
";X c #D19C64",
":X c #CA9464",
">X c #D8A869",
",X c #D7B078",
"<X c #E3B57D",
"1X c #BDC757",
"2X c #D4CD4A",
"3X c #D5C646",
"4X c #D4C55A",
"5X c #DAD556",
"6X c #DAD348",
"7X c #E3D646",
"8X c #E3D55A",
"9X c #F3E44D",
"0X c #E8E747",
"qX c #D2CD6A",
"wX c #E7D667",
"eX c #ECE96B",
"rX c #B7B794",
"tX c #B4B483",
"yX c #AE9C8B",
"uX c #C9B99A",
"iX c #CDB387",
"pX c #E2BD87",
"aX c #CBC88F",
"sX c #ECC896",
"dX c #F8FD8E",
"fX c #D9CFB0",
"gX c #EADCB9",
"hX c #F1EDB3",
"jX c #D8D4C1",
"kX c #DEE4C0",
"lX c #F7F0CA",
"zX c #F9F9F8",
"xX c #F5F1E1",
/* pixels */
"                                                                                                                        ",
"                                                                                                                        ",
"                                                                                                                        ",
"                                                                                                                        ",
"                                                                                                                        ",
"                                                                                                                        ",
"                                                                                                                        ",
"                                                                                                                        ",
"                                                  lXV.V.D.K.H./.(./.0X                                                  ",
"                                              zXb.J.B.L.H.C.(.(.(._.`.K.dX                                              ",
"                                            n.I.D.D.G.G.N.N.^.(.`.3X).W.G.m.                                            ",
"                    gXS.                  a.L.J.P.V.A.G.Q.Q.Q.~.~.9X!.^._.E.J.                                          ",
"                    -.k.M.              1Xb.s.b.L.L.A.G.R.N.R.~.9X).0XQ.G.E.H.G.                                        ",
"                  g.Q 2.G.              u.u.O.b U w.R.I.G.N.H.H.(._.).(.(.H.L.H.5X                                      ",
"                  f.H w.g.C.          s.u.k h j l a o.U.R.G.W.W._.~.)._.H.R.J.V.V.                                      ",
"                  G.;.L 2.l.C.      kXu.4.b | X. .G h H c.S.W.G.G.G.T._.H.J.L.V.a.eX            `.hX                    ",
"                  < < r h :.e.Z.    t.4.*.@.*.&.,.&.| v D w.7X7XS.!.7X7X!.U.c.<.,.P.          k.eXf.                    ",
"                           Xo.q.p.i.9.@.@.| | n c l z z h H x.x.Y.5XwXwXwX=XI I b I         jXg.8X2.                    ",
"                              n >.u.@.X.N M l c c q q i u d w.2.e.r.q.H E k g x M ..b.      z.g.g.%XU.                  ",
"                                7.%.@.M c | ..b v 8.| 0 q u e H +.D v h j g M X.#.0.s.    l.z.w.;.Q R.                  ",
"                                4.0.#.v n , yX# 1 1 = d q s g c n > 0 0 0 q N B | O.y.C.S.B.r.t < ( zX                  ",
"                              =.u.I.P.i.Y , ` 4 . & uX1 q ] 8.x.e.c ; e , - , j #.#.,.J.k.%.                            ",
"                              4.b.z.l.A.T.d.K H j h p.J.g.U.Y.3X2Xi.> 4 ) 4 zXgXV  .$.V.e.                              ",
"                              4.i.k.e.a.z.l.B.S.g.<.o.B.L.J.V.T.!.C.a.r I 7 1 fXfXB ,.s.                                ",
"                            =.5.6.6.q.r.<.k.e.r.q.@.5.,.q.q.x.3XqX,X5Xi.J.f } 3.5.$.C.J.m.                              ",
"                            *.5.$.>.&.&.>.>.O.K u c n G +.3.r.=X%X4X4Xa.b.c.2X3XP.0XT.A.D.                              ",
"                            *.$.$.T | Y v h x s q d $ n E :.2.j.j.%Xr.7.a.7.-X3X8X8XA.G.V.                              ",
"                          '.@.O. .Y v g s u w d 0 0 = = D D :.3.;.w.3.O.#.y.+.%XY.z.B.a.V.                              ",
"                          .... .G v x e s s c n M u 0 - = b h y j F l = 0 v v <.w.z.k.l.V.hX                            ",
"                          ..X. .v b r G G O.,.,.,.$.{ d > - - q w ; q e r n b b +.6.e.l.s.qX                            ",
"                          |  .G b 0 n  . .$.8.p.i.p.7.$. .s > > q T >.<.e.e.6.f f v $.p.p.qX                            ",
"                          o. .G d n o.o. .&.,.8.p.p.l.a.|.,. .$.<.x.3XY.g.p.g.$.d f  .5.i.aX                            ",
"                        fXO.J J e O.D D t 2 r t j Z P =XqX5X2X%X3X6Xx.2XY.Y.p.6.Y h K &.i.                              ",
"                        +X#.[ | D o.E - : < S A A 7 2 C S &X8X6X5X5X6X6Xp.l.i.e.,.x G &.6.                              ",
"                        ] ..O. . .o.P S = k a ( a ].].7 ( 2 3 C C C Z w.l.i.y.i.<.H [ 8.0.                              ",
"                        { [  .$.O.K P W X % , ( a .XoX.XiXaXa XX].< 1 2 2 r f +.e.O.,.7.8.                              ",
"                        ] o.o.#.X.| H }.o o $ # * O & .XiXtX.XfXkXU gXV .X- $ @Xe.,.7.i.7.                              ",
"                        rXT | %.| | X.:X+ X & & # % @ @ # O # ( aX# o = X * Q <.q.q.e.p.t.                              ",
"                          N J ..| | ..v.F o & : : & & @ @ @ @ @ $ @ + . + Z pXe.p.i.p.y.+X                              ",
"                          | G [ T O...Q ,Xo X 8 ~ 8 6 4 # & & & & @ X o % >X<.y.5.i.l.9.zX                              ",
"                            | T T ..X.} @X{.X + ! ^ ^ ! ! ! / ! ! 8 & . >XsX0.9.7.5.i.4.                                ",
"                            m Y N  . . .P >X{.o 5 A ^ ^ ' ' ' ' _ 9 O #X<X8.*.,.8.9.#.tX                                ",
"                              T N  . .m $.{.*X$Xo @ 8 9 A ~ A ^ k ( &XsX&.%.8.8.9.%.|                                   ",
"                              m Y | T Y } +.{.>X@X$XoX+ & & % W #XpXsX&.%.,.&.4.%.#.                                    ",
"                                R Y Y Y G [ O.L :X#X>X*X*X*X>XsXpX{.#. .X.*.O.*.#.                                      ",
"                                +XY T J J G [ o.E L W {.;X;X#X} E K m m @.@.*...tX                                      ",
"                                  N J n Y Y J G J [ J G n G G n v x c n ] @.X.z                                         ",
"                                    | G K K G n n n G K T G n l c z l M Y @.z                                           ",
"                                    OX[  .K K J v v c n v c c l g z c  ...B                                             ",
"                                      l G J T J G v v D v x c c n  .#.T rX                                              ",
"                                        n J T v n v v n n n T ....#.c                                                   ",
"                                          b N n G v v v n n n Y c d                                                     ",
"                                              '.T c n N n n c n xX                                                      ",
"                                                                                                                        ",
"                                                                                                                        ",
"                                                                                                                        ",
"                                                                                                                        ",
"                                                                                                                        ",
"                                                                                                                        ",
"                                                                                                                        "
};
