/* XPM */
static char *result[] = {
/* columns rows colors chars-per-pixel */
"60 60 7 1 ",
"  c black",
". c #030100",
"X c #090401",
"o c #190A02",
"O c #1C0B02",
"+ c #4B1D05",
"@ c #C84C0C",
/* pixels */
"@@@@@@@ @@@@@@ @@@@@@@ @@@@@@ @@@@@@@o@@@@@@ @@@@@@@+@@@@@@ ",
"@@@@@@@ @@@@@@ @@@@@@@ @@@@@@ @@@@@@@o@@@@@@ @@@@@@@+@@@@@@ ",
"@@@@@@@ @@@@@@ @@@@@@@ @@@@@@ @@@@@@@o@@@@@@ @@@@@@@+@@@@@@ ",
"                                                            ",
"@@@ @@@@@@ @@@@@@@ @@@@@@ @@@@@@@ @@@@@@ @@@@@@@ @@@@@@ @@@@",
"@@@ @@@@@@ @@@@@@@ @@@@@@ @@@@@@@ @@@@@@ @@@@@@@ @@@@@@ @@@@",
"@@@ @@@@@@ @@@@@@@ @@@@@@ @@@@@@@ @@@@@@ @@@@@@@ @@@@@@ @@@@",
"                                                            ",
"@@@@@@@ @@@@@@ @@@@@@@ @@@@@@ @@@@@@@o@@@@@@ @@@@@@@+@@@@@@ ",
"@@@@@@@ @@@@@@ @@@@@@@ @@@@@@ @@@@@@@o@@@@@@ @@@@@@@+@@@@@@ ",
"                                                            ",
"@@@ @@@@@@ @@@@@@@ @@@@@@ @@@@@@@ @@@@@@ @@@@@@@ @@@@@@ @@@@",
"@@@ @@@@@@ @@@@@@@ @@@@@@ @@@@@@@ @@@@@@ @@@@@@@ @@@@@@ @@@@",
"@@@ @@@@@@ @@@@@@@ @@@@@@ @@@@@@@ @@@@@@ @@@@@@@ @@@@@@ @@@@",
"                                                            ",
"@@@@@@@ @@@@@@ @@@@@@@ @@@@@@ @@@@@@@o@@@@@@ @@@@@@@+@@@@@@ ",
"@@@@@@@ @@@@@@ @@@@@@@ @@@@@@ @@@@@@@o@@@@@@ @@@@@@@+@@@@@@ ",
"@@@@@@@ @@@@@@ @@@@@@@ @@@@@@ @@@@@@@o@@@@@@ @@@@@@@+@@@@@@ ",
"                                                            ",
"@@@ @@@@@@ @@@@@@@ @@@@@@ @@@@@@@ @@@@@@ @@@@@@@ @@@@@@ @@@@",
"@@@ @@@@@@ @@@@@@@ @@@@@@ @@@@@@@ @@@@@@ @@@@@@@ @@@@@@ @@@@",
"@@@ @@@@@@ @@@@@@@ @@@@@@ @@@@@@@ @@@@@@ @@@@@@@ @@@@@@ @@@@",
"                                                            ",
"@@@@@@@ @@@@@@ @@@@@@@ @@@@@@ @@@@@@@o@@@@@@ @@@@@@@+@@@@@@ ",
"@@@@@@@ @@@@@@ @@@@@@@ @@@@@@ @@@@@@@o@@@@@@ @@@@@@@+@@@@@@ ",
"                                                            ",
"@@@ @@@@@@ @@@@@@@ @@@@@@ @@@@@@@ @@@@@@ @@@@@@@ @@@@@@ @@@@",
"@@@ @@@@@@ @@@@@@@ @@@@@@ @@@@@@@ @@@@@@ @@@@@@@ @@@@@@ @@@@",
"@@@ @@@@@@ @@@@@@@ @@@@@@ @@@@@@@ @@@@@@ @@@@@@@ @@@@@@ @@@@",
"                                                            ",
"@@@@@@@ @@@@@@ @@@@@@@ @@@@@@ @@@@@@@o@@@@@@ @@@@@@@+@@@@@@ ",
"@@@@@@@ @@@@@@ @@@@@@@ @@@@@@ @@@@@@@o@@@@@@ @@@@@@@+@@@@@@ ",
"@@@@@@@ @@@@@@ @@@@@@@ @@@@@@ @@@@@@@o@@@@@@ @@@@@@@+@@@@@@ ",
"                                                            ",
"@@@ @@@@@@ @@@@@@@ @@@@@@ @@@@@@@ @@@@@@ @@@@@@@ @@@@@@ @@@@",
"@@@ @@@@@@ @@@@@@@ @@@@@@ @@@@@@@ @@@@@@ @@@@@@@ @@@@@@ @@@@",
"@@@ @@@@@@ @@@@@@@ @@@@@@ @@@@@@@ @@@@@@ @@@@@@@ @@@@@@ @@@@",
"ooooooo oooooo ooooooo oooooo ooooooo.oooooo oooooooXoooooo ",
"@@@@@@@ @@@@@@ @@@@@@@ @@@@@@ @@@@@@@o@@@@@@ @@@@@@@+@@@@@@ ",
"@@@@@@@ @@@@@@ @@@@@@@ @@@@@@ @@@@@@@o@@@@@@ @@@@@@@+@@@@@@ ",
"                                                            ",
"@@@ @@@@@@ @@@@@@@ @@@@@@ @@@@@@@ @@@@@@ @@@@@@@ @@@@@@ @@@@",
"@@@ @@@@@@ @@@@@@@ @@@@@@ @@@@@@@ @@@@@@ @@@@@@@ @@@@@@ @@@@",
"@@@ @@@@@@ @@@@@@@ @@@@@@ @@@@@@@ @@@@@@ @@@@@@@ @@@@@@ @@@@",
"                                                            ",
"@@@@@@@ @@@@@@ @@@@@@@ @@@@@@ @@@@@@@o@@@@@@ @@@@@@@+@@@@@@ ",
"@@@@@@@ @@@@@@ @@@@@@@ @@@@@@ @@@@@@@o@@@@@@ @@@@@@@+@@@@@@ ",
"@@@@@@@ @@@@@@ @@@@@@@ @@@@@@ @@@@@@@o@@@@@@ @@@@@@@+@@@@@@ ",
"                                                            ",
"@@@ @@@@@@ @@@@@@@ @@@@@@ @@@@@@@ @@@@@@ @@@@@@@ @@@@@@ @@@@",
"@@@ @@@@@@ @@@@@@@ @@@@@@ @@@@@@@ @@@@@@ @@@@@@@ @@@@@@ @@@@",
"@@@ @@@@@@ @@@@@@@ @@@@@@ @@@@@@@ @@@@@@ @@@@@@@ @@@@@@ @@@@",
"+++++++ ++++++ +++++++ ++++++ +++++++X++++++ +++++++O++++++ ",
"@@@@@@@ @@@@@@ @@@@@@@ @@@@@@ @@@@@@@o@@@@@@ @@@@@@@+@@@@@@ ",
"@@@@@@@ @@@@@@ @@@@@@@ @@@@@@ @@@@@@@o@@@@@@ @@@@@@@+@@@@@@ ",
"                                                            ",
"@@@ @@@@@@ @@@@@@@ @@@@@@ @@@@@@@ @@@@@@ @@@@@@@ @@@@@@ @@@@",
"@@@ @@@@@@ @@@@@@@ @@@@@@ @@@@@@@ @@@@@@ @@@@@@@ @@@@@@ @@@@",
"@@@ @@@@@@ @@@@@@@ @@@@@@ @@@@@@@ @@@@@@ @@@@@@@ @@@@@@ @@@@",
"                                                            "
};
